<svg aria-hidden="true" style="position: absolute; width: 0; height: 0; overflow: hidden;" version="1.1" xmlns="http://www.w3.org/2000/svg" xmlns:xlink="http://www.w3.org/1999/xlink">
<defs>
<symbol id="burger" viewBox="0 0 32 32">
<path d="M4 5.333h24v2.667h-24v-2.667zM4 14.667h24v2.667h-24v-2.667zM4 24h24v2.667h-24v-2.667z"></path>
</symbol>
<symbol id="checkbox" viewBox="0 0 32 32">
<path fill="#5956e9" style="fill: var(--color1, #5956e9)" d="M16 29.333c-7.364 0-13.333-5.969-13.333-13.333s5.969-13.333 13.333-13.333c7.364 0 13.333 5.969 13.333 13.333s-5.969 13.333-13.333 13.333zM14.671 21.333l9.427-9.428-1.885-1.885-7.541 7.543-3.772-3.772-1.885 1.885 5.657 5.657z"></path>
</symbol>
<symbol id="telemarketer" viewBox="0 0 32 32">
<path fill="#fff" style="fill: var(--color1, #fff)" d="M9.84 14.256c1.465 3.234 4.603 4.642 6.16 4.642 1.024 0 2.731-0.609 4.197-1.945-0.536 0.037-1.109 0.056-1.721 0.056-0.144 0-0.294-0.001-0.455-0.004-0.309 0.238-0.691 0.372-1.087 0.372h-1.304c-0.983 0-1.782-0.8-1.782-1.782s0.8-1.782 1.782-1.782h1.304c0.471 0 0.912 0.184 1.239 0.5 0.109 0.001 0.216 0.002 0.321 0.002 1.684 0 2.793-0.154 3.519-0.341-0.094-0.229-0.145-0.48-0.145-0.741v-4.519c0-0.47 0.175-0.921 0.476-1.269-0.161-1.253-0.453-2.21-0.889-2.916-0.899-1.455-2.631-2.132-5.453-2.132-2.341 0-3.957 0.486-4.941 1.485-0.763 0.775-1.205 1.88-1.412 3.55 0.308 0.349 0.487 0.805 0.487 1.282v4.519c0 0.376-0.108 0.727-0.294 1.024z"></path>
<path fill="#fff" style="fill: var(--color1, #fff)" d="M6.633 14.299h1.564c0.589 0 1.067-0.478 1.067-1.067v-4.519c0-0.394-0.214-0.737-0.531-0.922 0.349-3.701 1.777-6.265 7.266-6.265 3.152 0 5.12 0.809 6.192 2.545 0.624 1.010 0.924 2.315 1.065 3.726-0.312 0.186-0.522 0.526-0.522 0.916v4.519c0 0.508 0.355 0.932 0.831 1.040-0.69 0.451-2.117 0.912-5.074 0.912-0.239 0-0.489-0.003-0.749-0.009-0.152-0.293-0.458-0.493-0.81-0.493h-1.304c-0.504 0-0.913 0.409-0.913 0.913s0.409 0.913 0.913 0.913h1.304c0.305 0 0.574-0.15 0.74-0.379 0.275 0.007 0.543 0.011 0.803 0.011 3.332-0 5.451-0.569 6.309-1.697 0.037-0.048 0.070-0.096 0.1-0.143h0.482c0.589 0 1.067-0.478 1.067-1.067v-4.519c0-0.589-0.478-1.067-1.067-1.067h-0.588c-0.166-1.705-0.533-3.156-1.287-4.378-1.359-2.199-3.809-3.268-7.491-3.268s-6.132 1.069-7.491 3.268c-0.755 1.221-1.122 2.673-1.287 4.378h-0.588c-0.589 0-1.067 0.478-1.067 1.067v4.519c0 0.589 0.478 1.067 1.067 1.067z"></path>
<path fill="#fff" style="fill: var(--color1, #fff)" d="M28.898 27.588c-0.355-2.206-1.085-5.047-2.55-6.056-0.999-0.689-4.485-2.552-5.974-3.347l-0.031-0.017c-0.17-0.091-0.378-0.073-0.53 0.046-0.781 0.613-1.636 1.026-2.541 1.228-0.16 0.036-0.291 0.149-0.349 0.303l-0.922 2.431-0.922-2.431c-0.058-0.153-0.19-0.267-0.35-0.303-0.905-0.201-1.76-0.614-2.542-1.228-0.152-0.119-0.36-0.138-0.53-0.046-1.472 0.787-5.004 2.688-6.001 3.361-1.687 1.136-2.423 5.247-2.554 6.059-0.013 0.081-0.005 0.163 0.022 0.24 0.060 0.17 1.607 4.172 12.877 4.172s12.816-4.002 12.877-4.172c0.027-0.077 0.035-0.16 0.022-0.24zM23.651 25.055h-4.463v-0.94h4.463v0.94z"></path>
</symbol>
<symbol id="cellphone" viewBox="0 0 32 32">
<path fill="#fff" style="fill: var(--color1, #fff)" d="M22.732 0h-13.464c-1.289 0-2.329 1.045-2.329 2.331v27.34c0 1.285 1.040 2.329 2.329 2.329h13.464c1.286 0 2.329-1.044 2.329-2.329v-27.34c0-1.286-1.043-2.331-2.329-2.331zM12.678 1.416h6.647c0.168 0 0.304 0.251 0.304 0.561s-0.136 0.562-0.304 0.562h-6.647c-0.169 0-0.303-0.252-0.303-0.562s0.134-0.561 0.303-0.561zM16.001 29.699c-0.82 0-1.487-0.667-1.487-1.488s0.667-1.486 1.487-1.486c0.817 0 1.484 0.665 1.484 1.486s-0.667 1.488-1.484 1.488zM23.316 24.605h-14.631v-20.671h14.631v20.671z"></path>
</symbol>
<symbol id="comment" viewBox="0 0 32 32">
<path fill="#fff" style="fill: var(--color1, #fff)" d="M26.86 2.156h-21.751c-2.274 0-4.124 1.85-4.124 4.124v13.311c0 2.27 1.842 4.117 4.11 4.124v6.041l8.68-6.040h13.085c2.274 0 4.124-1.85 4.124-4.125v-13.311c0-2.274-1.85-4.124-4.124-4.124zM22.955 17.626h-13.941v-1.758h13.941v1.758zM22.955 13.876h-13.941v-1.758h13.941v1.758zM22.955 10.126h-13.941v-1.758h13.941v1.758z"></path>
</symbol>
<symbol id="browser" viewBox="0 0 32 32">
<path fill="#fff" style="fill: var(--color1, #fff)" d="M14.125 16h0.938v-0.937c0-0.517-0.42-0.938-0.938-0.938s-0.937 0.42-0.937 0.938c0 0.517 0.42 0.937 0.937 0.937z"></path>
<path fill="#fff" style="fill: var(--color1, #fff)" d="M15.063 17.875c-0.189 0-3.001 0-2.813 0-0.517 0-0.937 0.42-0.937 0.937v0.938h3.75v-1.875z"></path>
<path fill="#fff" style="fill: var(--color1, #fff)" d="M18.812 15.063c0-0.517-0.42-0.938-0.937-0.938s-0.938 0.42-0.938 0.938v0.937h0.938c0.517 0 0.937-0.42 0.937-0.937z"></path>
<path fill="#fff" style="fill: var(--color1, #fff)" d="M15.063 21.625h-1.875v3.75h5.625v-3.75h-1.875v0.937c0 0.518-0.419 0.938-0.937 0.938s-0.937-0.419-0.937-0.938v-0.937z"></path>
<path fill="#fff" style="fill: var(--color1, #fff)" d="M0 28.188c0 1.551 1.262 2.812 2.813 2.812h26.375c1.551 0 2.812-1.262 2.812-2.812v-17.813h-32v17.813zM9.438 18.812c0-1.296 0.886-2.38 2.082-2.704-0.131-0.324-0.207-0.676-0.207-1.046 0-1.551 1.262-2.813 2.812-2.813 0.723 0 1.376 0.282 1.875 0.731 0.499-0.45 1.152-0.731 1.875-0.731 1.551 0 2.812 1.262 2.812 2.813 0 0.37-0.076 0.722-0.207 1.046 1.195 0.324 2.082 1.408 2.082 2.704v1.875c0 0.518-0.419 0.938-0.937 0.938h-0.938v4.688c0 0.518-0.419 0.937-0.937 0.937h-7.5c-0.518 0-0.937-0.419-0.937-0.937v-4.688h-0.938c-0.518 0-0.937-0.419-0.937-0.938v-1.875z"></path>
<path fill="#fff" style="fill: var(--color1, #fff)" d="M20.688 18.812c0-0.517-0.42-0.937-0.938-0.937-0.189 0-3.001 0-2.812 0v1.875h3.75v-0.938z"></path>
<path fill="#fff" style="fill: var(--color1, #fff)" d="M29.188 1h-26.375c-1.551 0-2.813 1.262-2.813 2.813v4.687h32v-4.687c0-1.551-1.262-2.813-2.812-2.813zM4.686 6.625c-0.518 0-0.938-0.42-0.938-0.938s0.42-0.938 0.938-0.938c0.518 0 0.938 0.42 0.938 0.938s-0.42 0.938-0.938 0.938zM8.498 6.625c-0.518 0-0.938-0.42-0.938-0.938s0.42-0.938 0.938-0.938c0.518 0 0.937 0.42 0.937 0.938s-0.42 0.938-0.937 0.938zM12.248 6.625c-0.518 0-0.938-0.42-0.938-0.938s0.42-0.938 0.938-0.938c0.518 0 0.937 0.42 0.937 0.938s-0.42 0.938-0.937 0.938zM27.313 6.625h-5.688c-0.518 0-0.938-0.419-0.938-0.938s0.419-0.938 0.938-0.938h5.688c0.518 0 0.937 0.419 0.937 0.938s-0.419 0.938-0.937 0.938z"></path>
</symbol>
<symbol id="pencil" viewBox="0 0 32 32">
<path fill="#fff" style="fill: var(--color1, #fff)" d="M31.063 0h-3.813c-0.518 0-0.937 0.419-0.937 0.938v0.938h-7.673c-0.388-1.089-1.419-1.875-2.64-1.875s-2.252 0.786-2.64 1.875h-7.673v-0.938c0-0.518-0.419-0.938-0.938-0.938h-3.813c-0.518 0-0.938 0.419-0.938 0.938v3.75c0 0.518 0.419 0.938 0.938 0.938h3.813c0.518 0 0.938-0.419 0.938-0.938v-0.95h3.85c-3.254 2.033-5.399 5.602-5.655 9.601-1.125 0.368-1.945 1.415-1.945 2.662 0 1.551 1.262 2.812 2.813 2.812s2.813-1.262 2.813-2.812c0-1.196-0.754-2.213-1.809-2.619 0.32-4.458 3.43-8.215 7.757-9.287 0.468 0.905 1.402 1.531 2.489 1.531s2.021-0.626 2.489-1.531c4.327 1.072 7.437 4.829 7.757 9.287-1.055 0.406-1.809 1.423-1.809 2.619 0 1.551 1.262 2.812 2.812 2.812s2.813-1.262 2.813-2.812c0-1.246-0.82-2.293-1.945-2.662-0.256-3.998-2.402-7.556-5.655-9.588h3.85v0.938c0 0.518 0.419 0.938 0.937 0.938h3.813c0.518 0 0.937-0.419 0.937-0.938v-3.75c0-0.518-0.419-0.938-0.937-0.938z"></path>
<path fill="#fff" style="fill: var(--color1, #fff)" d="M22.378 30.837c-0.49-1.501-1.903-2.65-3.566-2.65h-5.625c-1.663 0-3.075 1.149-3.566 2.65-0.189 0.579 0.303 1.163 0.912 1.163h10.932c0.609 0 1.101-0.584 0.912-1.163z"></path>
<path fill="#fff" style="fill: var(--color1, #fff)" d="M24.28 19.23l-7.342-11.014v8.894c1.089 0.388 1.875 1.419 1.875 2.64 0 1.551-1.262 2.812-2.812 2.812s-2.812-1.262-2.812-2.812c0-1.221 0.786-2.252 1.875-2.64v-8.894l-7.343 11.014c-0.248 0.372-0.199 0.867 0.117 1.183 1.721 1.721 2.821 3.938 3.246 6.317 0.651-0.264 1.36-0.417 2.105-0.417h5.625c0.745 0 1.453 0.153 2.105 0.417 0.425-2.378 1.525-4.595 3.246-6.316 0.316-0.316 0.365-0.811 0.117-1.183z"></path>
<path fill="#fff" style="fill: var(--color1, #fff)" d="M16 18.812c-0.517 0-0.937 0.42-0.937 0.938s0.42 0.937 0.937 0.937c0.517 0 0.937-0.42 0.937-0.937s-0.42-0.938-0.937-0.938z"></path>
</symbol>
<symbol id="eyescanner" viewBox="0 0 32 32">
<path fill="#fff" style="fill: var(--color1, #fff)" d="M31.871 16.492c-3.597 6.371-9.531 10.175-15.871 10.175s-12.273-3.804-15.871-10.175c-0.172-0.305-0.172-0.677 0-0.983 3.597-6.372 9.531-10.176 15.871-10.176s12.273 3.804 15.871 10.175c0.172 0.305 0.172 0.679 0 0.984zM16 10.667c-2.941 0-5.333 2.392-5.333 5.333s2.392 5.333 5.333 5.333c2.941 0 5.333-2.392 5.333-5.333s-2.392-5.333-5.333-5.333z"></path>
<path fill="#fff" style="fill: var(--color1, #fff)" d="M30.667 21.333c-0.736 0-1.333 0.597-1.333 1.333v5.333c0 0.735-0.599 1.333-1.333 1.333h-5.333c-0.736 0-1.333 0.597-1.333 1.333s0.597 1.333 1.333 1.333h5.333c2.205 0 4-1.795 4-4v-5.333c0-0.736-0.597-1.333-1.333-1.333z"></path>
<path fill="#fff" style="fill: var(--color1, #fff)" d="M1.333 21.333c-0.736 0-1.333 0.597-1.333 1.333v5.333c0 2.205 1.795 4 4 4h5.333c0.736 0 1.333-0.597 1.333-1.333s-0.597-1.333-1.333-1.333h-5.333c-0.735 0-1.333-0.599-1.333-1.333v-5.333c0-0.736-0.597-1.333-1.333-1.333z"></path>
<path fill="#fff" style="fill: var(--color1, #fff)" d="M28 0h-5.333c-0.736 0-1.333 0.597-1.333 1.333s0.597 1.333 1.333 1.333h5.333c0.735 0 1.333 0.599 1.333 1.333v5.333c0 0.736 0.597 1.333 1.333 1.333s1.333-0.597 1.333-1.333v-5.333c0-2.205-1.795-4-4-4z"></path>
<path fill="#fff" style="fill: var(--color1, #fff)" d="M9.333 0h-5.333c-2.205 0-4 1.795-4 4v5.333c0 0.736 0.597 1.333 1.333 1.333s1.333-0.597 1.333-1.333v-5.333c0-0.735 0.599-1.333 1.333-1.333h5.333c0.736 0 1.333-0.597 1.333-1.333s-0.597-1.333-1.333-1.333z"></path>
</symbol>
</defs>
</svg>
